<svg xmlns="http://www.w3.org/2000/svg" viewBox="0 0 296 132.66"><path d="M217.84,150.65h0v.09h0c0,3.23-.09,5.74-.25,10.06a.88.88,0,0,1,.47.84c-.43,7-1.77,23.69-5.07,26.38a1,1,0,0,1-.54.26,11.24,11.24,0,0,1-1.32,1.6l-.67.51h0a37.87,37.87,0,0,1-4,6.15c-3.82,5.57-11,8.35-11.11,8.37-1,.45-2.34,1.07-3.41,1.45-1.29.46-4.45,1.59-6,2.31a13.2,13.2,0,0,1-3.91,1.16c-.67.09-1.63.18-2.91.24,0,0,0,.06,0,.08s-.87,1.33-3.9,1.51-12.2.33-18,.33-14.87-.14-18-.33c-2.65-.16-3.63-1.15-3.85-1.43-3.22-.06-6.32-.14-7.19-.18a25.33,25.33,0,0,1-3.62-.36l-.06,0h0a6.2,6.2,0,0,1-2.93,1.08c-.93.07-1.9.09-6.89.16h-.36a30.44,30.44,0,0,1-8.46-1.21,24.83,24.83,0,0,1-3.29.33l-.79,0a27.18,27.18,0,0,1-5.06-.58,20.29,20.29,0,0,1-4.21-1.58l-4.91.15c-7.89.24-19.58.59-25.74.59H56.8c1.86,2.93,4.09,6.51,4.12,6.57a.61.61,0,0,1,.1.47.63.63,0,0,1-.35.35.49.49,0,0,1-.33.07h-.08a.56.56,0,0,1-.27.23,6.91,6.91,0,0,1-2.11.28,13,13,0,0,1-6.47-1.91,16.77,16.77,0,0,1-5.6-6.09h0c-3.07,0-10.18,0-26.62.31h-.77a50.42,50.42,0,0,0-5.59.24l-.46.09a17.51,17.51,0,0,1-3.59.48H8.54c-1.11,0-5.12-.07-10-.16a1.71,1.71,0,0,1-.84.24c-.22,0-20.65-.17-22.19-.21a3.16,3.16,0,0,1-1.94-.5c-1.19,0-2.66-.11-4.24-.2,0,.13,0,.45-.06.79a.61.61,0,0,1-.64.57h0A55.62,55.62,0,0,1-43.09,209a6.69,6.69,0,0,1-1.22-.39c-5.67-1-7.62-1.93-9-2.68A19.83,19.83,0,0,1-57.49,202c-1.19-1.4-6.9-9.23-6.95-9.31s-5.77-8.14-7.59-11.07a21.5,21.5,0,0,1-3.08-7.82,146.2,146.2,0,0,1-2-23.11h0v0h0a146.2,146.2,0,0,1,2-23.11A21.5,21.5,0,0,1-72,119.75c1.82-2.93,7.53-11,7.58-11.07s5.77-7.91,7-9.31a19.57,19.57,0,0,1,4.18-3.92c1.38-.75,3.33-1.64,9-2.68a6.69,6.69,0,0,1,1.22-.39,55.65,55.65,0,0,1,11.7-1.26.62.62,0,0,1,.68.57c0,.34.05.66.06.79,1.58-.09,3-.16,4.24-.2a3.09,3.09,0,0,1,1.94-.5c1.54,0,22-.21,22.18-.21a1.78,1.78,0,0,1,.85.23c5.28-.09,9.55-.16,10.21-.15a17.51,17.51,0,0,1,3.59.48l.46.09a50.42,50.42,0,0,0,5.59.24h.77c16.44.26,23.55.31,26.62.31h0a16.68,16.68,0,0,1,5.6-6.09,13,13,0,0,1,6.47-1.91,6.72,6.72,0,0,1,2.1.28.44.44,0,0,1,.26.24h.18a.43.43,0,0,1,.22.06.69.69,0,0,1,.38.37.61.61,0,0,1-.1.47c0,.06-2.26,3.64-4.12,6.57l4.07,0c5.83,0,18.41.34,26.74.59l4.91.15a20.29,20.29,0,0,1,4.21-1.58,24.06,24.06,0,0,1,5.85-.56,26.9,26.9,0,0,1,3.29.32,30.81,30.81,0,0,1,8.82-1.2c5,.07,6,.09,6.89.15a6.32,6.32,0,0,1,2.93,1.09h0l.06,0a25.33,25.33,0,0,1,3.62-.36c.87,0,4-.12,7.19-.18.22-.28,1.2-1.27,3.85-1.43,3.09-.19,12.2-.33,18-.33s14.87.14,18,.33,3.87,1.45,3.9,1.51,0,0,0,.08c1.28.06,2.24.15,2.91.24a13.2,13.2,0,0,1,3.91,1.16c1.59.71,4.75,1.85,6,2.31,1.07.38,2.45,1,3.42,1.45.06,0,7.28,2.8,11.11,8.39a37.67,37.67,0,0,1,4,6.13h0l.66.49a12,12,0,0,1,1.33,1.62,1,1,0,0,1,.54.26c3.3,2.69,4.64,19.35,5.07,26.39a.88.88,0,0,1-.47.83C217.75,144.91,217.84,147.42,217.84,150.65Z" transform="translate(77.51 -84.37)" fill="none" stroke="#000" stroke-linecap="round" stroke-linejoin="round" stroke-width="0.85"/><path d="M31.71,102.5s13.3,3.28,27.48,7.55a6.21,6.21,0,0,1,2.86,1.86,4.23,4.23,0,0,1,.53,3.45c-.4,2-3.24,12.47-3.24,35.29" transform="translate(77.51 -84.37)" fill="none" stroke="#000" stroke-linecap="round" stroke-linejoin="round" stroke-width="0.57"/><path d="M13.07,140.73a79.34,79.34,0,0,0-.61,9.92" transform="translate(77.51 -84.37)" fill="none" stroke="#000" stroke-linecap="round" stroke-linejoin="round" stroke-width="0.28"/><path d="M14,135.33q-.3,1.44-.54,2.94" transform="translate(77.51 -84.37)" fill="none" stroke="#000" stroke-linecap="round" stroke-linejoin="round" stroke-width="0.28"/><path d="M32.81,102.78s-12.44,8.55-17.87,28.47" transform="translate(77.51 -84.37)" fill="none" stroke="#000" stroke-linecap="round" stroke-linejoin="round" stroke-width="0.28"/><path d="M12.14,136.61c.1-.36.2-.77.32-1.22A70.19,70.19,0,0,1,26,106.64" transform="translate(77.51 -84.37)" fill="none" stroke="#000" stroke-linecap="round" stroke-linejoin="round" stroke-width="0.28"/><path d="M7.35,144.51s.73-1,1.53-2" transform="translate(77.51 -84.37)" fill="none" stroke="#000" stroke-linecap="round" stroke-linejoin="round" stroke-width="0.28"/><path d="M23,108.69a62.61,62.61,0,0,0-12.83,31.44" transform="translate(77.51 -84.37)" fill="none" stroke="#000" stroke-linecap="round" stroke-linejoin="round" stroke-width="0.28"/><path d="M-74.17,150.65" transform="translate(77.51 -84.37)" fill="none" stroke="#000" stroke-linecap="round" stroke-linejoin="round" stroke-width="0.28"/><path d="M17.85,131.22a77.65,77.65,0,0,0-2.39,19.43" transform="translate(77.51 -84.37)" fill="none" stroke="#000" stroke-linecap="round" stroke-linejoin="round" stroke-width="0.28"/><path d="M56.51,208.46h4.36c7.23.06,25.19-.55,31.68-.73l1.29,0c5-.12,10.14-.18,11.91-.09a10.85,10.85,0,0,1,3.48.53" transform="translate(77.51 -84.37)" fill="none" stroke="#000" stroke-linecap="round" stroke-linejoin="round" stroke-width="0.57"/><path d="M92.55,207.74a20.73,20.73,0,0,0,4.21,1.58,25.13,25.13,0,0,0,5.81.56,26.13,26.13,0,0,0,3.31-.33,7.71,7.71,0,0,0,3.25-1.45" transform="translate(77.51 -84.37)" fill="none" stroke="#000" stroke-linecap="round" stroke-linejoin="round" stroke-width="0.57"/><path d="M105.88,209.55a30.1,30.1,0,0,0,8.81,1.21c4.89-.07,5.93-.09,6.88-.15a6.14,6.14,0,0,0,2.85-1.06" transform="translate(77.51 -84.37)" fill="none" stroke="#000" stroke-linecap="round" stroke-linejoin="round" stroke-width="0.57"/><path d="M109.23,208.2a2.45,2.45,0,0,0,1.11.19c.84,0,4.82.16,7.14.31s4.33.27,5.44.47a8.64,8.64,0,0,1,1.72.38,23.21,23.21,0,0,0,3.57.35c1.37.06,8.66.23,12.95.26S174,210,176.46,210a44.41,44.41,0,0,0,5.51-.3,13.05,13.05,0,0,0,3.86-1.15c1.45-.65,4.22-1.66,6-2.31.92-.32,2.16-.86,3.41-1.45,0,0,7.2-2.72,11.05-8.33,0,0,7.58-8.8,9.6-23.55a136.12,136.12,0,0,0,1.45-22.22" transform="translate(77.51 -84.37)" fill="none" stroke="#000" stroke-linecap="round" stroke-linejoin="round" stroke-width="0.57"/><path d="M217.68,150.65c0,3.32-.09,5.84-.27,10.53a136.3,136.3,0,0,1-1.74,16.67,36.85,36.85,0,0,1-2.9,9.6,10.18,10.18,0,0,1-1.75,2.32l-.65.49" transform="translate(77.51 -84.37)" fill="none" stroke="#000" stroke-linecap="round" stroke-linejoin="round" stroke-width="0.57"/><path d="M212.37,188.13s3.89.56,5.53-26.51a.72.72,0,0,0-.48-.72" transform="translate(77.51 -84.37)" fill="none" stroke="#000" stroke-linecap="round" stroke-linejoin="round" stroke-width="0.57"/><path d="M171.7,210s6.22-2.18,8.36-2.91c0,0,.71-.24.86-.73" transform="translate(77.51 -84.37)" fill="none" stroke="#000" stroke-linecap="round" stroke-linejoin="round" stroke-width="0.43"/><path d="M184.06,202c-1.13.8-2.78,1.67-3.95,2.32s-2.18,1.34-2.18,1.34-.6.42,0,.58a17.26,17.26,0,0,0,3.68.1,16.78,16.78,0,0,0,4.35-.93,47,47,0,0,0,7.72-4.39" transform="translate(77.51 -84.37)" fill="none" stroke="#000" stroke-linecap="round" stroke-linejoin="round" stroke-width="0.43"/><path d="M125.68,150.63c0,25.31.89,32.37.89,32.37a4.75,4.75,0,0,0,.94,2.47s.44.8,3.45.8,25.31-.41,59.52-4.66" transform="translate(77.51 -84.37)" fill="none" stroke="#000" stroke-linecap="round" stroke-linejoin="round" stroke-width="0.57"/><path d="M130.64,150.65c0,24.92.76,30.82.76,30.82a3.41,3.41,0,0,0,.86,1.88,4.22,4.22,0,0,0,2.8.65c1,0,14.5-.71,22.55-1.46s16.15-1.81,18.76-2.45,3.58-.82,4.33-1.57,1.73-2.13,2.39-5.44a106.18,106.18,0,0,0,2.17-22.43" transform="translate(77.51 -84.37)" fill="none" stroke="#000" stroke-linecap="round" stroke-linejoin="round" stroke-width="0.43"/><path d="M130.18,150.65c0,24.71.74,30.72.78,31a4.41,4.41,0,0,0,1.24,2.61,5.25,5.25,0,0,0,3.57.94c1,0,14.49-.71,22.66-1.47a188.92,188.92,0,0,0,18.93-2.48l.7-.17c2.24-.55,3.26-.8,4.17-1.71s2-2.3,2.71-6l0-.17a106.88,106.88,0,0,0,2.15-22.48" transform="translate(77.51 -84.37)" fill="none" stroke="#000" stroke-linecap="round" stroke-linejoin="round" stroke-width="0.28"/><path d="M122.26,199.45S148,198.13,162.07,195c12.19-2.67,17.62-4.09,24.59-6.16" transform="translate(77.51 -84.37)" fill="none" stroke="#000" stroke-linecap="round" stroke-linejoin="round" stroke-width="0.28"/><path d="M132,198s22.59-3.3,38.63-7.73c11.26-3.1,15.55-4.35,18.2-5.12" transform="translate(77.51 -84.37)" fill="none" stroke="#000" stroke-linecap="round" stroke-linejoin="round" stroke-width="0.28"/><path d="M31.71,198.8s13.3-3.27,27.48-7.54a6.21,6.21,0,0,0,2.86-1.86,4.23,4.23,0,0,0,.53-3.45c-.4-2-3.24-12.48-3.24-35.3" transform="translate(77.51 -84.37)" fill="none" stroke="#000" stroke-linecap="round" stroke-linejoin="round" stroke-width="0.57"/><path d="M127.19,182.17a19.3,19.3,0,0,0,3.25-.24" transform="translate(77.51 -84.37)" fill="none" stroke="#000" stroke-linecap="round" stroke-linejoin="round" stroke-width="0.28"/><path d="M62.72,186.27s20.5-1.74,41.14-2.86c10.46-.57,17.54-.94,22-1.17" transform="translate(77.51 -84.37)" fill="none" stroke="#000" stroke-linecap="round" stroke-linejoin="round" stroke-width="0.28"/><path d="M7.09,150.65a74.14,74.14,0,0,0,5.6,28.4s4.16,8.64,8,12.21a40.06,40.06,0,0,0,9.41,6.87,23.26,23.26,0,0,0,7.19,2.09h4.87c2.24,0,38.39.15,66.61-2.24,0,0,7.87-.47,15.68-1.8a50.3,50.3,0,0,0,7.88-2s5.19-1.94,5.8-3.51a1.23,1.23,0,0,0,0-.35" transform="translate(77.51 -84.37)" fill="none" stroke="#000" stroke-linecap="round" stroke-linejoin="round" stroke-width="0.57"/><path d="M107.73,198.06a66.43,66.43,0,0,0,5.94-8" transform="translate(77.51 -84.37)" fill="none" stroke="#000" stroke-linecap="round" stroke-linejoin="round" stroke-width="0.57"/><path d="M27.08,208.63a5,5,0,0,1,1.12-1.34c.78-.67,6.3-4.8,8.38-6.46,0,0,.62-.49.73-.61" transform="translate(77.51 -84.37)" fill="none" stroke="#000" stroke-linecap="round" stroke-linejoin="round" stroke-width="0.57"/><path d="M112.35,208.46s1-.75.27-2.79a53.37,53.37,0,0,0-3.83-7.69" transform="translate(77.51 -84.37)" fill="none" stroke="#000" stroke-linecap="round" stroke-linejoin="round" stroke-width="0.57"/><path d="M96.43,207.65a4.18,4.18,0,0,0,2.45,1.24c1.46.13,3.63.19,4.19.17s1.26-.22,1.85-1.47" transform="translate(77.51 -84.37)" fill="none" stroke="#000" stroke-linecap="round" stroke-linejoin="round" stroke-width="0.57"/><path d="M101.53,207.58a6.14,6.14,0,0,0,2.22,1.34" transform="translate(77.51 -84.37)" fill="none" stroke="#000" stroke-linecap="round" stroke-linejoin="round" stroke-width="0.57"/><path d="M114.48,210.76a24.09,24.09,0,0,0-1.62-2.28" transform="translate(77.51 -84.37)" fill="none" stroke="#000" stroke-linecap="round" stroke-linejoin="round" stroke-width="0.28"/><path d="M45,206.62s2.25,5.47,6.51,7.93c5,2.86,8.44,1.62,8.44,1.62a.28.28,0,0,0,.16-.15c0-.1.12-.08.19-.1s.15,0,.28,0,.47-.21.22-.62-6.13-9.84-6.53-10.26a2.84,2.84,0,0,0-1.32-.78,5.37,5.37,0,0,1-1-.17,9.13,9.13,0,0,0-2.86-.47,5.77,5.77,0,0,0-3.14.84A1.89,1.89,0,0,0,45,206.62Z" transform="translate(77.51 -84.37)" fill="none" stroke="#000" stroke-linecap="round" stroke-linejoin="round" stroke-width="0.57"/><line x1="137.41" y1="131.55" x2="131.26" y2="122.12" fill="none" stroke="#000" stroke-linecap="round" stroke-linejoin="round" stroke-width="0.28"/><path d="M60.51,215.91s-5.38-8.14-6.59-9.93" transform="translate(77.51 -84.37)" fill="none" stroke="#000" stroke-linecap="round" stroke-linejoin="round" stroke-width="0.28"/><path d="M47,205.36a18.65,18.65,0,0,1,6,.31" transform="translate(77.51 -84.37)" fill="none" stroke="#000" stroke-linecap="round" stroke-linejoin="round" stroke-width="0.28"/><path d="M45.36,204.91a9,9,0,0,1-.66-1.16c-.18-.44-.29-.84.17-1a8.92,8.92,0,0,1,3.57-.37c1.7.17,2.69.55,3.07,1s.55.73.55.73" transform="translate(77.51 -84.37)" fill="none" stroke="#000" stroke-linecap="round" stroke-linejoin="round" stroke-width="0.57"/><path d="M-40.5,202.68a2,2,0,0,0,0,.67,4.32,4.32,0,0,0,1.26,1.22,14.74,14.74,0,0,0,2.59,1l1.77.56c2.82.88,8,2.49,9.65,2.85" transform="translate(77.51 -84.37)" fill="none" stroke="#000" stroke-linecap="round" stroke-linejoin="round" stroke-width="0.28"/><path d="M-35,206.09a15.11,15.11,0,0,0,2.58,1.35l4.57,1.43" transform="translate(77.51 -84.37)" fill="none" stroke="#000" stroke-linecap="round" stroke-linejoin="round" stroke-width="0.28"/><path d="M-65.86,150.65a61,61,0,0,0,3.51,21.14,10.17,10.17,0,0,0,.41.94" transform="translate(77.51 -84.37)" fill="none" stroke="#000" stroke-linecap="round" stroke-linejoin="round" stroke-width="0.43"/><path d="M-66.39,150.65A61.2,61.2,0,0,0-62.85,172s2,5.49,6,7.3,12.79,5.48,16.33,6.81,15.12,5.18,20.25,6.41S5,198.21,18.06,198.21c0,0,9.23,0,12-.11" transform="translate(77.51 -84.37)" fill="none" stroke="#000" stroke-linecap="round" stroke-linejoin="round" stroke-width="0.28"/><path d="M-55.77,176.81" transform="translate(77.51 -84.37)" fill="none" stroke="#000" stroke-linecap="round" stroke-linejoin="round" stroke-width="0.28"/><path d="M-62.91,150.65a54.73,54.73,0,0,0,4.48,21.91,23.39,23.39,0,0,0,3.19,4.6c1.59,1.59,3.12,2,5.42,2.88s26.9,8.65,42.37,12,21.85,4.51,26.28,4.69,7,.14,9,.13" transform="translate(77.51 -84.37)" fill="none" stroke="#000" stroke-linecap="round" stroke-linejoin="round" stroke-width="0.57"/><path d="M112.68,202s6.72,0,13,.44a425.45,425.45,0,0,0,50.11-1.12" transform="translate(77.51 -84.37)" fill="none" stroke="#000" stroke-linecap="round" stroke-linejoin="round" stroke-width="0.28"/><path d="M39.9,200.22c3.91-1,12-3.16,14.39-3.75.92-.23,2.38-.63,4.08-1.1,4.16-1.15,9.85-2.72,12.71-3.19a145.85,145.85,0,0,1,14.67-1.91c4-.18,13.33-.39,17.57-.39H104l9.39.09,10.24.09c6.89.05,11.08.12,12.44.21l1,0a7.5,7.5,0,0,1,2.44.31s0,0,0-.09" transform="translate(77.51 -84.37)" fill="none" stroke="#000" stroke-linecap="round" stroke-linejoin="round" stroke-width="0.57"/><path d="M48.08,200.21A22.58,22.58,0,0,0,50.36,198a1.19,1.19,0,0,0,.08-.56" transform="translate(77.51 -84.37)" fill="none" stroke="#000" stroke-linecap="round" stroke-linejoin="round" stroke-width="0.28"/><path d="M38,200.22l-.63.31a714.89,714.89,0,0,0,72.1-1.3s11.71-1.16,18.88-2.76c0,0,9.13-1.71,11.81-5.8.44-.67-2.17-.86-4-1s-8.38-.17-12.47-.2L104,189.31c-4,0-14.15.2-18.31.38A145.43,145.43,0,0,0,71,191.61c-4.06.68-13.67,3.51-16.83,4.3s-16.51,4.31-16.51,4.31" transform="translate(77.51 -84.37)" fill="none" stroke="#000" stroke-linecap="round" stroke-linejoin="round" stroke-width="0.28"/><path d="M108.22,197.5a184.52,184.52,0,0,0,20.59-2.77s5.7-1,9.08-4.38" transform="translate(77.51 -84.37)" fill="none" stroke="#000" stroke-linecap="round" stroke-linejoin="round" stroke-width="0.28"/><path d="M135.62,191c0,.35-3.21,2.67-8.55,3.66" transform="translate(77.51 -84.37)" fill="none" stroke="#000" stroke-linecap="round" stroke-linejoin="round" stroke-width="0.28"/><path d="M111,196.61c-.22-.26,0-.67,0-.67l3.54-5.1s.2-.45,1.32-.49,17.4.11,18.2.17,1.56.09,1.53.44" transform="translate(77.51 -84.37)" fill="none" stroke="#000" stroke-linecap="round" stroke-linejoin="round" stroke-width="0.57"/><path d="M127.07,194.62c-6.4,1.21-13.36,2.06-15,2.21-.63,0-.93-.06-1-.22" transform="translate(77.51 -84.37)" fill="none" stroke="#000" stroke-linecap="round" stroke-linejoin="round" stroke-width="0.28"/><path d="M138.6,150.63c0,22.89.46,26.6.46,26.6s.14,3.17,3.05,3,16.21-1.15,32.44-3.17c0,0,4.61-.35,5.4-4.72a112.93,112.93,0,0,0,2.08-21.7" transform="translate(77.51 -84.37)" fill="none" stroke="#000" stroke-linecap="round" stroke-linejoin="round" stroke-width="0.28"/><path d="M15.93,173.33a71.81,71.81,0,0,1-3.47-22.68" transform="translate(77.51 -84.37)" fill="none" stroke="#000" stroke-linecap="round" stroke-linejoin="round" stroke-width="0.28"/><path d="M32.81,198.53s-7.52-5.17-13.42-16.83" transform="translate(77.51 -84.37)" fill="none" stroke="#000" stroke-linecap="round" stroke-linejoin="round" stroke-width="0.28"/><path d="M20.81,187.1A65.4,65.4,0,0,0,26,194.66" transform="translate(77.51 -84.37)" fill="none" stroke="#000" stroke-linecap="round" stroke-linejoin="round" stroke-width="0.28"/><path d="M7.35,156.8s1.46,1.95,2.5,3.26c.28.34.52.64.71.85.88,1,1.1,1.91,1.9,5a63.81,63.81,0,0,0,4.34,13.37" transform="translate(77.51 -84.37)" fill="none" stroke="#000" stroke-linecap="round" stroke-linejoin="round" stroke-width="0.28"/><path d="M17.47,184.29a63.5,63.5,0,0,1-7.45-24" transform="translate(77.51 -84.37)" fill="none" stroke="#000" stroke-linecap="round" stroke-linejoin="round" stroke-width="0.28"/><path d="M23,192.61s-.85-1-2.12-2.82" transform="translate(77.51 -84.37)" fill="none" stroke="#000" stroke-linecap="round" stroke-linejoin="round" stroke-width="0.28"/><path d="M22.36,192.73l1.23.19a1.38,1.38,0,0,1,.6.41c.27.31.68.89.68.89a1,1,0,0,0,.66.44c.4,0,1,.12,1,.12s.26,0,.81.53,3.79,3.26,3.79,3.26" transform="translate(77.51 -84.37)" fill="none" stroke="#000" stroke-linecap="round" stroke-linejoin="round" stroke-width="0.28"/><path d="M-51.16,184l-.76-2.05a5.81,5.81,0,0,1-.13-1v-1.74" transform="translate(77.51 -84.37)" fill="none" stroke="#000" stroke-linecap="round" stroke-linejoin="round" stroke-width="0.28"/><path d="M-74.17,150.65" transform="translate(77.51 -84.37)" fill="none" stroke="#000" stroke-linecap="round" stroke-linejoin="round" stroke-width="0.28"/><path d="M-74,159.53" transform="translate(77.51 -84.37)" fill="none" stroke="#000" stroke-linecap="round" stroke-linejoin="round" stroke-width="0.28"/><path d="M15.75,157.53q-.29-3.3-.29-6.88" transform="translate(77.51 -84.37)" fill="none" stroke="#000" stroke-linecap="round" stroke-linejoin="round" stroke-width="0.28"/><path d="M-63.53,150.65c0,16.28,6.7,26.72,7,27.25s0,.66,0,.66-.26.22-.79-.19a16,16,0,0,1-4.6-5.64" transform="translate(77.51 -84.37)" fill="none" stroke="#000" stroke-linecap="round" stroke-linejoin="round" stroke-width="0.43"/><path d="M49.85,198.57s27.63.6,56.28-1.73a75.82,75.82,0,0,0,5.05-7" transform="translate(77.51 -84.37)" fill="none" stroke="#000" stroke-linecap="round" stroke-linejoin="round" stroke-width="0.28"/><line x1="183.65" y1="112.48" x2="185.04" y2="113.43" fill="none" stroke="#000" stroke-linecap="round" stroke-linejoin="round" stroke-width="0.28"/><path d="M135.47,210.08s.8,1.25,3.78,1.43,12,.33,17.95.33" transform="translate(77.51 -84.37)" fill="none" stroke="#000" stroke-linecap="round" stroke-linejoin="round" stroke-width="0.57"/><path d="M178.93,210.08s-.79,1.25-3.77,1.43-12,.33-18,.33" transform="translate(77.51 -84.37)" fill="none" stroke="#000" stroke-linecap="round" stroke-linejoin="round" stroke-width="0.57"/><path d="M17.64,184.52h.09l1.07-.16s.29-.07.32,0a3.64,3.64,0,0,1,0,.51,1,1,0,0,0,.68.4c.22,0,.2-.2.16-.53s-.38-1.77-.84-3.69-2-6.1-2-6.1L16.72,173l-.17.11h-.62s.29,1.48.37,2.17.6,3.91.71,5.21.63,4,.63,4" transform="translate(77.51 -84.37)" fill="none" stroke="#000" stroke-linecap="round" stroke-linejoin="round" stroke-width="0.28"/><path d="M17.73,184.51v.23a2.27,2.27,0,0,1,.25.44c.05.16.52,1,.67,1.45a8.73,8.73,0,0,1,.14,2.5" transform="translate(77.51 -84.37)" fill="none" stroke="#000" stroke-linecap="round" stroke-linejoin="round" stroke-width="0.28"/><path d="M20,185.26a4.45,4.45,0,0,1,.67,2.43c0,1.52,0,3.46,0,3.46" transform="translate(77.51 -84.37)" fill="none" stroke="#000" stroke-linecap="round" stroke-linejoin="round" stroke-width="0.28"/><path d="M19.49,185.36a3.76,3.76,0,0,1,.87,2.46v3.1" transform="translate(77.51 -84.37)" fill="none" stroke="#000" stroke-linecap="round" stroke-linejoin="round" stroke-width="0.28"/><path d="M16.51,173.31l.4,2.05s.26.83.44,1.58,1.28,5.22,1.64,7.16" transform="translate(77.51 -84.37)" fill="none" stroke="#000" stroke-linecap="round" stroke-linejoin="round" stroke-width="0.28"/><path d="M16.07,168.05l-.44-2.15a4.57,4.57,0,0,1-.06-.86s-.19-.51-.33-1-.42-2.24-.47-2.77,0-.69.27-.89.68,0,.68,0H16l.57,3.42a2.1,2.1,0,0,1-.06.72,2.64,2.64,0,0,0-.07,1.25c.08.48.34,2.19.34,2.19l-.71.07" transform="translate(77.51 -84.37)" fill="none" stroke="#000" stroke-linecap="round" stroke-linejoin="round" stroke-width="0.28"/><path d="M16.22,168a3.48,3.48,0,0,1,.11,1.33,8.55,8.55,0,0,0-.22,3.74" transform="translate(77.51 -84.37)" fill="none" stroke="#000" stroke-linecap="round" stroke-linejoin="round" stroke-width="0.28"/><path d="M16.64,168a3.58,3.58,0,0,1,.1,1.43c0,.1,0,.21-.08.35a7.65,7.65,0,0,0-.14,3.25" transform="translate(77.51 -84.37)" fill="none" stroke="#000" stroke-linecap="round" stroke-linejoin="round" stroke-width="0.28"/><path d="M13.07,145.45c.16,1.71.64,5.79,2.07,14.91" transform="translate(77.51 -84.37)" fill="none" stroke="#000" stroke-linecap="round" stroke-linejoin="round" stroke-width="0.28"/><path d="M13.9,145.58s1.2,9.17,2.1,13.86a5.23,5.23,0,0,0,.25.73,3.28,3.28,0,0,1,.35,1.09c.1.62.44,2.6.44,2.6a4.51,4.51,0,0,1,0,.85,4.24,4.24,0,0,0,.13,1.4c.12.58,2.14,9.51,2.72,12.14" transform="translate(77.51 -84.37)" fill="none" stroke="#000" stroke-linecap="round" stroke-linejoin="round" stroke-width="0.28"/><path d="M16.77,168.05s1.67,8.06,2.22,10.33" transform="translate(77.51 -84.37)" fill="none" stroke="#000" stroke-linecap="round" stroke-linejoin="round" stroke-width="0.28"/><path d="M19.52,178.38H18.9l.31,1.09a.28.28,0,0,0,.31.18,2.66,2.66,0,0,0,.59-.15s.24,0,.16-.37-.24-.88-.24-.88l-.25.07Z" transform="translate(77.51 -84.37)" fill="none" stroke="#000" stroke-linecap="round" stroke-linejoin="round" stroke-width="0.28"/><line x1="97.17" y1="94.13" x2="97.46" y2="94.98" fill="none" stroke="#000" stroke-linecap="round" stroke-linejoin="round" stroke-width="0.28"/><path d="M13.51,145.45h-.63l-.07-1.06a1,1,0,0,1,.49-.12h.5s.12,0,.17.38a6.92,6.92,0,0,1,.07.85Z" transform="translate(77.51 -84.37)" fill="none" stroke="#000" stroke-linecap="round" stroke-linejoin="round" stroke-width="0.28"/><path d="M13.77,135.79c.15-.49.24-.8.24-.8l.84-1.92h-.21l-.5-.36s-.68,1.44-1,2.08-1.92,3.7-2.64,4.89-2,3.83-2,3.83l.07,0,1,.49s.29.11.26.19a3.9,3.9,0,0,1-.28.46,1,1,0,0,0,.31.74c.18.13.29-.06.45-.37s.79-1.73,1.6-3.66c.59-1.41,1.47-4.22,1.89-5.6" transform="translate(77.51 -84.37)" fill="none" stroke="#000" stroke-linecap="round" stroke-linejoin="round" stroke-width="0.28"/><path d="M8.58,143.54l-.14.2a2.59,2.59,0,0,1-.08.52c0,.17-.17,1.14-.34,1.63a5.76,5.76,0,0,1-.74,1.3" transform="translate(77.51 -84.37)" fill="none" stroke="#000" stroke-linecap="round" stroke-linejoin="round" stroke-width="0.28"/><path d="M10,145.52A4.89,4.89,0,0,1,9,148l-1.81,2.53" transform="translate(77.51 -84.37)" fill="none" stroke="#000" stroke-linecap="round" stroke-linejoin="round" stroke-width="0.28"/><path d="M9.49,145.29a4.13,4.13,0,0,1-.81,2.63L7.17,150" transform="translate(77.51 -84.37)" fill="none" stroke="#000" stroke-linecap="round" stroke-linejoin="round" stroke-width="0.28"/><path d="M14.48,133.22l-.94,2s-.29.86-.61,1.61-2.17,5.23-3.08,7.11" transform="translate(77.51 -84.37)" fill="none" stroke="#000" stroke-linecap="round" stroke-linejoin="round" stroke-width="0.28"/><path d="M17.36,128.44l1-2.1a5.79,5.79,0,0,1,.47-.77s.17-.56.34-1a28.54,28.54,0,0,1,1.32-2.66c.29-.48.45-.57.76-.6s.56.39.56.39l.23.15-1.64,3.27a2.07,2.07,0,0,1-.49.59,2.9,2.9,0,0,0-.83,1c-.22.46-1.07,2.07-1.07,2.07l-.62-.35" transform="translate(77.51 -84.37)" fill="none" stroke="#000" stroke-linecap="round" stroke-linejoin="round" stroke-width="0.28"/><path d="M17.49,128.52a4,4,0,0,1-.72,1.21,9.33,9.33,0,0,0-2.48,3.07" transform="translate(77.51 -84.37)" fill="none" stroke="#000" stroke-linecap="round" stroke-linejoin="round" stroke-width="0.28"/><path d="M17.85,128.74a3.93,3.93,0,0,1-.8,1.28,3.71,3.71,0,0,1-.28.26A8.57,8.57,0,0,0,14.66,133" transform="translate(77.51 -84.37)" fill="none" stroke="#000" stroke-linecap="round" stroke-linejoin="round" stroke-width="0.28"/><path d="M29.43,107.9s-4.67,8.56-6.82,13.11a4.45,4.45,0,0,0-.25.78,3.67,3.67,0,0,1-.39,1.13l-1.24,2.49a4.46,4.46,0,0,1-.53.73,4.76,4.76,0,0,0-.75,1.28c-.26.56-4.11,9.41-5.27,12" transform="translate(77.51 -84.37)" fill="none" stroke="#000" stroke-linecap="round" stroke-linejoin="round" stroke-width="0.28"/><path d="M17.94,128.86s-3.61,7.88-4.57,10.16" transform="translate(77.51 -84.37)" fill="none" stroke="#000" stroke-linecap="round" stroke-linejoin="round" stroke-width="0.28"/><path d="M13.8,139.33l-.5-.36-.41,1.11a.28.28,0,0,0,.13.34,3.06,3.06,0,0,0,.57.21s.22.11.37-.23.34-.89.34-.89l-.25-.09Z" transform="translate(77.51 -84.37)" fill="none" stroke="#000" stroke-linecap="round" stroke-linejoin="round" stroke-width="0.28"/><line x1="91.36" y1="55.13" x2="91.07" y2="56.03" fill="none" stroke="#000" stroke-linecap="round" stroke-linejoin="round" stroke-width="0.28"/><path d="M-58.75,150.7s.59,1.68,2,1.68h1.54s.46,0,.46-1.69" transform="translate(77.51 -84.37)" fill="none" stroke="#000" stroke-linecap="round" stroke-linejoin="round" stroke-width="0.43"/><path d="M17.64,150.68A78.74,78.74,0,0,1,29.81,109.2c1.54-2.43,5.33-2.87,5.33-2.87a15.71,15.71,0,0,1,4.81.29c5.46,1.28,17.16,4.86,17.16,4.86s2.73.73,3.38,2c0,0,.61.65,0,4.15a211.84,211.84,0,0,0-2.35,22.15s-.08,1.06-.1,1.46-.2.92-.73.94a12.31,12.31,0,0,0-3.61.38c-1.28.46-1.81.73-1.91,2.25s-.21,3.63-.21,3.63-2.84.18-3.46.93c0,0-.45.31-.45,1.33" transform="translate(77.51 -84.37)" fill="none" stroke="#000" stroke-linecap="round" stroke-linejoin="round" stroke-width="0.28"/><path d="M17.64,150.75a78.69,78.69,0,0,0,12.17,41.47c1.54,2.44,5.33,2.88,5.33,2.88a15.71,15.71,0,0,0,4.81-.29c5.46-1.28,17.16-4.86,17.16-4.86s2.73-.73,3.38-2c0,0,.61-.65,0-4.15a211.84,211.84,0,0,1-2.35-22.15s-.08-1.06-.1-1.46-.2-.92-.73-.94a12.31,12.31,0,0,1-3.61-.38c-1.28-.46-1.81-.73-1.91-2.25s-.21-3.63-.21-3.63-2.84-.18-3.46-.93c0,0-.45-.31-.45-1.33" transform="translate(77.51 -84.37)" fill="none" stroke="#000" stroke-linecap="round" stroke-linejoin="round" stroke-width="0.28"/><path d="M-30.36,196.27c5.35,5.53,3.59,7.44,3.59,7.44-.53,1.15-2.7,1.24-2.7,1.24s-12.17-.4-17.53-3.72c-6.08-3.77-11.51-15-12.35-16.83s-.27-2.47-.27-2.47.53-.8,2.39-.22c1.45.44,9.81,4,15.2,6.64" transform="translate(77.51 -84.37)" fill="none" stroke="#000" stroke-linecap="round" stroke-linejoin="round" stroke-width="0.28"/><path d="M-53.58,184" transform="translate(77.51 -84.37)" fill="none" stroke="#000" stroke-linecap="round" stroke-linejoin="round" stroke-width="0.28"/><path d="M-27,200.88a4.85,4.85,0,0,1,.2,1.35s0,1.39-2.4,1.68a36,36,0,0,1-7.92-.41,18.9,18.9,0,0,1-6.37-2.37c-1.74-1-3.27-2.78-5.68-6.06a50.47,50.47,0,0,1-4.61-8.6s-.72-1.8.23-2.35a2.72,2.72,0,0,1,2-.08" transform="translate(77.51 -84.37)" fill="none" stroke="#000" stroke-linecap="round" stroke-linejoin="round" stroke-width="0.28"/><path d="M-42,188.35c1.31.66,2.94,1.49,4.58,2.35a26.43,26.43,0,0,1,7.09,5.57" transform="translate(77.51 -84.37)" fill="none" stroke="#000" stroke-linecap="round" stroke-linejoin="round" stroke-width="0.28"/><path d="M-52.42,185.11s-.63.32.15,2.17a55.57,55.57,0,0,0,4.92,8.89c1.74,2.29,3.45,4.15,5.31,5.07a16.56,16.56,0,0,0,8,2.23c3.53,0,5.07-.08,5.91-1,0,0,.81-.81-.73-2.81s-4.72-6-8.92-8.23c-3.23-1.69-6.55-3.38-9-4.51-.75-.34-1.41-.63-2-.85l-2.44-.95A1.58,1.58,0,0,0-52.42,185.11Z" transform="translate(77.51 -84.37)" fill="none" stroke="#000" stroke-linecap="round" stroke-linejoin="round" stroke-width="0.28"/><path d="M-46.71,186.93a74.8,74.8,0,0,0,3.94,8.29c1.8,2.95,4.9,6.75,8.29,6.72,0,0,3.33.12,2.81-4.69" transform="translate(77.51 -84.37)" fill="none" stroke="#000" stroke-linecap="round" stroke-linejoin="round" stroke-width="0.28"/><path d="M-41.6,189.43s.54,1,.75,1.38a3.2,3.2,0,0,0,1.39,1.11c.69.34,4.69,1.68,7.15,4.49,0,0,2.4,2.75,2.7,3.73s.17,2-1.13,2.24-4.3.3-6.3-1.11" transform="translate(77.51 -84.37)" fill="none" stroke="#000" stroke-linecap="round" stroke-linejoin="round" stroke-width="0.28"/><path d="M-43.07,188.69s1.1,2.56,1.47,3.14a4.29,4.29,0,0,0,1.91,1.47,13.2,13.2,0,0,0,1.62.64,3.41,3.41,0,0,0,1.25,0,10,10,0,0,0,1.18-.2" transform="translate(77.51 -84.37)" fill="none" stroke="#000" stroke-linecap="round" stroke-linejoin="round" stroke-width="0.28"/><path d="M-41.15,192a5.49,5.49,0,0,0,2.35.9c1.07,0,1.42,0,1.42,0" transform="translate(77.51 -84.37)" fill="none" stroke="#000" stroke-linecap="round" stroke-linejoin="round" stroke-width="0.28"/><polyline points="42.53 109.78 41.09 110.62 41.09 115.26 42.37 116.24 44.74 116.94" fill="none" stroke="#000" stroke-linecap="round" stroke-linejoin="round" stroke-width="0.28"/><line x1="41.53" y1="111.23" x2="43.7" y2="110.62" fill="none" stroke="#000" stroke-linecap="round" stroke-linejoin="round" stroke-width="0.28"/><line x1="41.64" y1="114.67" x2="45.79" y2="115.06" fill="none" stroke="#000" stroke-linecap="round" stroke-linejoin="round" stroke-width="0.28"/><path d="M-31.73,199s-2.55-.29-3.17-.43-.73-.4-.74-.88v-1s0-.43.74-.58,1.88-.47,1.88-.47" transform="translate(77.51 -84.37)" fill="none" stroke="#000" stroke-linecap="round" stroke-linejoin="round" stroke-width="0.28"/><path d="M-40.15,193.08l4,7.06s.93,1.54,1.65,1.8" transform="translate(77.51 -84.37)" fill="none" stroke="#000" stroke-linecap="round" stroke-linejoin="round" stroke-width="0.28"/><path d="M-45.09,187.7A81.15,81.15,0,0,0-41,196" transform="translate(77.51 -84.37)" fill="none" stroke="#000" stroke-linecap="round" stroke-linejoin="round" stroke-width="0.28"/><path d="M-44.06,192.82a8.22,8.22,0,0,0,3.61,3.41c2.29.93,2.73,1.13,2.73,1.13" transform="translate(77.51 -84.37)" fill="none" stroke="#000" stroke-linecap="round" stroke-linejoin="round" stroke-width="0.28"/><path d="M-35.87,194.44a3.34,3.34,0,0,0-1,.28.74.74,0,0,0-.42,1.08c.22.52.77,1.56.77,1.56" transform="translate(77.51 -84.37)" fill="none" stroke="#000" stroke-linecap="round" stroke-linejoin="round" stroke-width="0.28"/><line x1="42.92" y1="112.3" x2="42.92" y2="113.63" fill="none" stroke="#000" stroke-linecap="round" stroke-linejoin="round" stroke-width="0.28"/><line x1="43.28" y1="112.17" x2="43.28" y2="113.76" fill="none" stroke="#000" stroke-linecap="round" stroke-linejoin="round" stroke-width="0.28"/><line x1="43.65" y1="112.05" x2="43.65" y2="113.88" fill="none" stroke="#000" stroke-linecap="round" stroke-linejoin="round" stroke-width="0.28"/><line x1="44.01" y1="111.93" x2="44.01" y2="114.01" fill="none" stroke="#000" stroke-linecap="round" stroke-linejoin="round" stroke-width="0.28"/><line x1="44.38" y1="111.8" x2="44.38" y2="114.13" fill="none" stroke="#000" stroke-linecap="round" stroke-linejoin="round" stroke-width="0.28"/><line x1="44.74" y1="111.68" x2="44.74" y2="114.26" fill="none" stroke="#000" stroke-linecap="round" stroke-linejoin="round" stroke-width="0.28"/><path d="M-44.25,188.1a57.51,57.51,0,0,0,4.1,8.26" transform="translate(77.51 -84.37)" fill="none" stroke="#000" stroke-linecap="round" stroke-linejoin="round" stroke-width="0.28"/><path d="M-43.55,188.5a62.78,62.78,0,0,0,4.29,8.17" transform="translate(77.51 -84.37)" fill="none" stroke="#000" stroke-linecap="round" stroke-linejoin="round" stroke-width="0.28"/><path d="M-40.77,192.82a47.4,47.4,0,0,0,2.38,4.25" transform="translate(77.51 -84.37)" fill="none" stroke="#000" stroke-linecap="round" stroke-linejoin="round" stroke-width="0.28"/><path d="M-52.09,187.7a23,23,0,0,1,3.73,2.2,12.52,12.52,0,0,1,2.48,3.18,29.79,29.79,0,0,0,3.13,4.75c1.59,2,2.13,2.74,3.87,3.65a14.4,14.4,0,0,0,7,2" transform="translate(77.51 -84.37)" fill="none" stroke="#000" stroke-linecap="round" stroke-linejoin="round" stroke-width="0.28"/><path d="M-76.93,150.81" transform="translate(77.51 -84.37)" fill="none" stroke="#000" stroke-linecap="round" stroke-linejoin="round" stroke-width="0.28"/><path d="M-76.93,150.68a144.53,144.53,0,0,0,2,23.11,21.1,21.1,0,0,0,3.06,7.76c1.83,3,7.58,11.07,7.58,11.07s5.74,7.88,6.94,9.29a19.85,19.85,0,0,0,4.13,3.89c1.17.63,3,1.58,9.07,2.68" transform="translate(77.51 -84.37)" fill="none" stroke="#000" stroke-linecap="round" stroke-linejoin="round" stroke-width="0.57"/><path d="M-47.53,206.13a9.47,9.47,0,0,0,4.47,2.73,56.24,56.24,0,0,0,11.68,1.25.47.47,0,0,0,.51-.42c0-.45.07-.87.07-.87" transform="translate(77.51 -84.37)" fill="none" stroke="#000" stroke-linecap="round" stroke-linejoin="round" stroke-width="0.57"/><path d="M-74.39,150.67c0,.9,0,1,.21,6.4A104.15,104.15,0,0,0-72,171.17a41.52,41.52,0,0,0,3.15,8.15s1.2,2.26,1.62,3.35A91.37,91.37,0,0,0-63,191c1.69,2.94,1.94,3.62,3.28,5.64a18.34,18.34,0,0,0,5.88,6.07" transform="translate(77.51 -84.37)" fill="none" stroke="#000" stroke-linecap="round" stroke-linejoin="round" stroke-width="0.57"/><path d="M-58.17,196.22s2.45,5.53,6,7.79a32.21,32.21,0,0,0,6.66,2.68,76.68,76.68,0,0,0,11.77,1.86c3.79.26,7.28.42,9.05.44s31.65.62,33.45.59a20.26,20.26,0,0,0,4-.57,55.4,55.4,0,0,1,5.86-.25c2.29,0,20-.31,27.15-.31" transform="translate(77.51 -84.37)" fill="none" stroke="#000" stroke-linecap="round" stroke-linejoin="round" stroke-width="0.57"/><path d="M-73.8,150.69s.45,12,1.86,17.54,2.59,9.32,4.14,11.77c0,0,1.37,2.45,2.17,4.19a101.66,101.66,0,0,0,5.68,9.53,56.81,56.81,0,0,0,5.9,7.21,22.7,22.7,0,0,0,5.27,3.2A69.12,69.12,0,0,0-30,208.3l.41,0" transform="translate(77.51 -84.37)" fill="none" stroke="#000" stroke-linecap="round" stroke-linejoin="round" stroke-width="0.57"/><path d="M-53,168.41s21.25,2.65,34.71,4.83a2,2,0,0,1,1.67,1.35c.32,1.18,1,3.76,1.64,7.25a1.56,1.56,0,0,1-.24,1.4,1.84,1.84,0,0,1-1.8.44c-1.22-.27-16.28-3.71-20.76-5" transform="translate(77.51 -84.37)" fill="none" stroke="#000" stroke-linecap="round" stroke-linejoin="round" stroke-width="0.28"/><path d="M-31.14,178.84a19,19,0,0,1-2.63-5.68c-.42-1.4,1.13-1.19,1.13-1.19s7.7.92,14,2.09c0,0,1.16.08,1.39,1s.76,2.76,1.48,6.53c.27,1.38-1.39,1.1-1.39,1.1-6.67-1.27-11.17-2.6-11.17-2.6S-30.55,179.55-31.14,178.84Z" transform="translate(77.51 -84.37)" fill="none" stroke="#000" stroke-linecap="round" stroke-linejoin="round" stroke-width="0.43"/><path d="M-31.86,176.33a47.61,47.61,0,0,1,5.31,1.88c1.79.84,3.46,1.81,4.51,2.38a10.57,10.57,0,0,0,2.87,1.11,18.27,18.27,0,0,0,1.93.39c.37,0,.79-.05.61-.88-.57-2.72-1.09-4.79-1.34-5.65s-.83-1-.83-1-.7-.14-1.62-.22a6.31,6.31,0,0,0-2.24.07c-1,.17-2.16.4-4.35.79a25.93,25.93,0,0,1-5.4.12" transform="translate(77.51 -84.37)" fill="none" stroke="#000" stroke-linecap="round" stroke-linejoin="round" stroke-width="0.28"/><path d="M-32.16,176.16A25.48,25.48,0,0,1-27,177.73c2.26,1,3.62,1.73,4.94,2.29a17.85,17.85,0,0,0,3.39,1.13c1,.22,1.15.27,1.77.36" transform="translate(77.51 -84.37)" fill="none" stroke="#000" stroke-linecap="round" stroke-linejoin="round" stroke-width="0.28"/><path d="M-52.26,160.46s28,1.51,57.86,1" transform="translate(77.51 -84.37)" fill="none" stroke="#000" stroke-linecap="round" stroke-linejoin="round" stroke-width="0.28"/><path d="M-11.61,195.45h.12c1.11.14,15.08,2,20.43,2.58" transform="translate(77.51 -84.37)" fill="none" stroke="#000" stroke-linecap="round" stroke-linejoin="round" stroke-width="0.28"/><path d="M-10.2,203.37a5.4,5.4,0,0,1-2.07-2.54,28,28,0,0,1-1.18-3.46s-.24-1.15.32-1.59a1.78,1.78,0,0,1,1.41-.3" transform="translate(77.51 -84.37)" fill="none" stroke="#000" stroke-linecap="round" stroke-linejoin="round" stroke-width="0.57"/><path d="M6.59,204.2a89.09,89.09,0,0,1-13.6.32,6.68,6.68,0,0,1-3.11-1.07" transform="translate(77.51 -84.37)" fill="none" stroke="#000" stroke-linecap="round" stroke-linejoin="round" stroke-width="0.28"/><path d="M-1.14,204.34a4.23,4.23,0,0,1-2-.83,9.71,9.71,0,0,1-1.72-2.57,18.39,18.39,0,0,1-1.27-3.25,1.07,1.07,0,0,1,.48-1l.4-.26" transform="translate(77.51 -84.37)" fill="none" stroke="#000" stroke-linecap="round" stroke-linejoin="round" stroke-width="0.43"/><path d="M-10.2,203.37s1.25.95,5,1,5.49,0,7-.09a8.53,8.53,0,0,0,3.1-.57s.44-.08,0-1.3-.62-1.55-1.7-3.85A2.8,2.8,0,0,0,1,197.19c-1.62-.23-12.73-1.71-12.73-1.71" transform="translate(77.51 -84.37)" fill="none" stroke="#000" stroke-linecap="round" stroke-linejoin="round" stroke-width="0.57"/><path d="M5,203.69a5,5,0,0,1-2-.39,6.43,6.43,0,0,1-1.66-2.4s-.54-1.25-.84-2.08a2.9,2.9,0,0,1-.11-.75c0-.22.85-.77.85-.77" transform="translate(77.51 -84.37)" fill="none" stroke="#000" stroke-linecap="round" stroke-linejoin="round" stroke-width="0.43"/><path d="M113.19,196.69A32.21,32.21,0,0,0,127,190.5" transform="translate(77.51 -84.37)" fill="none" stroke="#000" stroke-linecap="round" stroke-linejoin="round" stroke-width="0.28"/><path d="M-26.37,208.93s.35.47,1.91.52,22.17.21,22.17.21a1.59,1.59,0,0,0,.8-.24" transform="translate(77.51 -84.37)" fill="none" stroke="#000" stroke-linecap="round" stroke-linejoin="round" stroke-width="0.57"/><path d="M178.31,201.17s5.72-7.7,7.2-9.95a76.66,76.66,0,0,0,4-6.64A37.65,37.65,0,0,0,192,177.8" transform="translate(77.51 -84.37)" fill="none" stroke="#000" stroke-linecap="round" stroke-linejoin="round" stroke-width="0.57"/><path d="M192.32,176.88s1.13-6,1.45-10.06.67-10.91.67-16.13" transform="translate(77.51 -84.37)" fill="none" stroke="#000" stroke-linecap="round" stroke-linejoin="round" stroke-width="0.57"/><path d="M192.43,176s-3.2.43-6.86,1a1.21,1.21,0,0,0-.74.35c-.24.29-.8.83-.8.83a.56.56,0,0,0-.16.37.58.58,0,0,0,.28.44c.17.13.71.44.71.44a2.35,2.35,0,0,0,1.24.16l5.63-.78" transform="translate(77.51 -84.37)" fill="none" stroke="#000" stroke-linecap="round" stroke-linejoin="round" stroke-width="0.28"/><path d="M204.64,176.37c0,.44-.84.35-1.25.34a8.74,8.74,0,0,0-1.5.12c-1.06.1-8.84.82-9.44.85a1.18,1.18,0,0,0-.8.27s-5.27.61-5.85.64-1.06-.17-1.07-.38.33-.34,1.26-.48,6.13-.76,6.13-.76a3.64,3.64,0,0,0,1.36,0,5.6,5.6,0,0,0,.82-.29,1.79,1.79,0,0,1,.87-.27l6.63-.6,1.08-.09c.32,0,.86-.12.86-.12a.55.55,0,0,1,.63.25A4.94,4.94,0,0,1,204.64,176.37Z" transform="translate(77.51 -84.37)" fill="none" stroke="#000" stroke-linecap="round" stroke-linejoin="round" stroke-width="0.43"/><path d="M195,176.42a2.25,2.25,0,0,1,.32-.82,1.13,1.13,0,0,1,.91-.43c.51,0,4.16-.39,8.91-.68,0,0,.47-.06.58.13a1.44,1.44,0,0,1,.06.84,4.87,4.87,0,0,1-.49,1.62,1.34,1.34,0,0,1-.75.48c-.44.06-4.8.8-9.24,1.18,0,0-.72.07-.68-.45a5.64,5.64,0,0,1,.12-.78" transform="translate(77.51 -84.37)" fill="none" stroke="#000" stroke-linecap="round" stroke-linejoin="round" stroke-width="0.28"/><path d="M184.8,178.16a8.88,8.88,0,0,0,1.37-.07c.94-.09,7.22-.81,8.79-1l9.26-.9" transform="translate(77.51 -84.37)" fill="none" stroke="#000" stroke-linecap="round" stroke-linejoin="round" stroke-width="0.28"/><path d="M190.7,182.92a6.62,6.62,0,0,1,2.33-.57l15-1.76" transform="translate(77.51 -84.37)" fill="none" stroke="#000" stroke-linecap="round" stroke-linejoin="round" stroke-width="0.28"/><path d="M197.57,198.57s9.28-11.51,11.58-15,3.3-5.89,3.72-8.05a126.48,126.48,0,0,0,1.18-13.28c.14-4.14.19-9,.19-11.49" transform="translate(77.51 -84.37)" fill="none" stroke="#000" stroke-linecap="round" stroke-linejoin="round" stroke-width="0.57"/><path d="M178.93,201.07s-1.25.24-2.52.58c0,0-.28.12-.28.33s.27.3.5.31,2.9-.1,4.38-.18,3-.18,5.23-.38,6-.47,8.18-.89a32.6,32.6,0,0,0,5.51-1.49s.36-.12.41-.24,0-.32,0-.36a.9.9,0,0,0-.56-.12h-1.87a12.52,12.52,0,0,0-2.34.22c-1.49.23-4.72.76-6.61,1s-4.69.62-6.32.76-1.21.06-1.84.15S178.93,201.07,178.93,201.07Z" transform="translate(77.51 -84.37)" fill="none" stroke="#000" stroke-linecap="round" stroke-linejoin="round" stroke-width="0.43"/><path d="M176.92,202c1.07-.27,2.07-.47,2.08-.47s1.2-.22,1.82-.31a4.91,4.91,0,0,1,.51,0c.18,0,.48,0,1.31-.1,1.15-.1,2.89-.32,4.44-.52l1.9-.24c1.49-.18,3.78-.54,5.46-.8l1.15-.19a12.11,12.11,0,0,1,2.15-.21h1.88" transform="translate(77.51 -84.37)" fill="none" stroke="#000" stroke-linecap="round" stroke-linejoin="round" stroke-width="0.28"/><path d="M200.78,198.55a20.19,20.19,0,0,0,3.28-3.57,49.5,49.5,0,0,0,6-12.88" transform="translate(77.51 -84.37)" fill="none" stroke="#000" stroke-linecap="round" stroke-linejoin="round" stroke-width="0.28"/><path d="M181,207a18,18,0,0,0,3.17-.39A39,39,0,0,0,195,202.74a43,43,0,0,0,4.15-2.81" transform="translate(77.51 -84.37)" fill="none" stroke="#000" stroke-linecap="round" stroke-linejoin="round" stroke-width="0.28"/><path d="M177.41,206.25c-.06.24,0,.5.51.55s.9.12,1.58.17" transform="translate(77.51 -84.37)" fill="none" stroke="#000" stroke-linecap="round" stroke-linejoin="round" stroke-width="0.28"/><path d="M193.17,176.71c1-4,2.23-9.33,2.23-26" transform="translate(77.51 -84.37)" fill="none" stroke="#000" stroke-linecap="round" stroke-linejoin="round" stroke-width="0.28"/><path d="M191.45,182.34a21.88,21.88,0,0,0,1.37-4.12c0-.08,0-.15.05-.23" transform="translate(77.51 -84.37)" fill="none" stroke="#000" stroke-linecap="round" stroke-linejoin="round" stroke-width="0.28"/><path d="M179.36,200.67s5.78-7.65,8.16-11.49c1.32-2.13,2.52-4,3.48-5.9" transform="translate(77.51 -84.37)" fill="none" stroke="#000" stroke-linecap="round" stroke-linejoin="round" stroke-width="0.28"/><path d="M128.46,185.44l5-.23" transform="translate(77.51 -84.37)" fill="none" stroke="#000" stroke-linecap="round" stroke-linejoin="round" stroke-width="0.28"/><path d="M61.71,189.93a236.56,236.56,0,0,1,29.42-3.06c12.61-.49,26.51-1,35.78-1.37" transform="translate(77.51 -84.37)" fill="none" stroke="#000" stroke-linecap="round" stroke-linejoin="round" stroke-width="0.28"/><path d="M-74.17,150.74" transform="translate(77.51 -84.37)" fill="none" stroke="#000" stroke-linecap="round" stroke-linejoin="round" stroke-width="0.28"/><path d="M56.51,92.93h4.36c7.23-.06,25.19.55,31.68.73l1.29,0c5,.12,10.14.18,11.91.09a10.85,10.85,0,0,0,3.48-.53" transform="translate(77.51 -84.37)" fill="none" stroke="#000" stroke-linecap="round" stroke-linejoin="round" stroke-width="0.57"/><path d="M92.55,93.65a20.73,20.73,0,0,1,4.21-1.58,24.6,24.6,0,0,1,5.81-.56,26.13,26.13,0,0,1,3.31.33,7.71,7.71,0,0,1,3.25,1.45" transform="translate(77.51 -84.37)" fill="none" stroke="#000" stroke-linecap="round" stroke-linejoin="round" stroke-width="0.57"/><path d="M105.88,91.84a30.1,30.1,0,0,1,8.81-1.21c4.89.07,5.93.09,6.88.16a6,6,0,0,1,2.85,1" transform="translate(77.51 -84.37)" fill="none" stroke="#000" stroke-linecap="round" stroke-linejoin="round" stroke-width="0.57"/><path d="M109.23,93.19a2.45,2.45,0,0,1,1.11-.19c.84,0,4.82-.16,7.14-.31s4.33-.27,5.44-.47a8.64,8.64,0,0,0,1.72-.38,23.21,23.21,0,0,1,3.57-.35c1.37-.06,8.66-.23,12.95-.26s32.79.18,35.3.18a44.41,44.41,0,0,1,5.51.3,13.05,13.05,0,0,1,3.86,1.15c1.45.64,4.22,1.66,6,2.31.92.32,2.16.86,3.41,1.45,0,0,7.2,2.71,11.05,8.33,0,0,7.58,8.8,9.6,23.55a136.12,136.12,0,0,1,1.45,22.22" transform="translate(77.51 -84.37)" fill="none" stroke="#000" stroke-linecap="round" stroke-linejoin="round" stroke-width="0.57"/><path d="M217.68,150.74c0-3.32-.09-5.84-.27-10.53a136.3,136.3,0,0,0-1.74-16.67,37,37,0,0,0-2.9-9.6,10.18,10.18,0,0,0-1.75-2.32l-.65-.49" transform="translate(77.51 -84.37)" fill="none" stroke="#000" stroke-linecap="round" stroke-linejoin="round" stroke-width="0.57"/><path d="M212.37,113.26s3.89-.56,5.53,26.51a.72.72,0,0,1-.48.72" transform="translate(77.51 -84.37)" fill="none" stroke="#000" stroke-linecap="round" stroke-linejoin="round" stroke-width="0.57"/><path d="M171.7,91.39s6.22,2.18,8.36,2.91c0,0,.71.24.86.73" transform="translate(77.51 -84.37)" fill="none" stroke="#000" stroke-linecap="round" stroke-linejoin="round" stroke-width="0.43"/><path d="M184.06,99.44c-1.13-.8-2.78-1.67-3.95-2.32s-2.18-1.34-2.18-1.34-.6-.42,0-.58a17.14,17.14,0,0,1,8,.83,47,47,0,0,1,7.72,4.39" transform="translate(77.51 -84.37)" fill="none" stroke="#000" stroke-linecap="round" stroke-linejoin="round" stroke-width="0.43"/><path d="M125.68,150.76c0-25.31.89-32.37.89-32.37a4.75,4.75,0,0,1,.94-2.47s.44-.8,3.45-.8,25.31.41,59.52,4.66" transform="translate(77.51 -84.37)" fill="none" stroke="#000" stroke-linecap="round" stroke-linejoin="round" stroke-width="0.57"/><path d="M130.64,150.74c0-24.92.76-30.82.76-30.82a3.41,3.41,0,0,1,.86-1.88,4.22,4.22,0,0,1,2.8-.65c1,0,14.5.71,22.55,1.46s16.15,1.81,18.76,2.45,3.58.82,4.33,1.57,1.73,2.13,2.39,5.44a106.18,106.18,0,0,1,2.17,22.43" transform="translate(77.51 -84.37)" fill="none" stroke="#000" stroke-linecap="round" stroke-linejoin="round" stroke-width="0.43"/><path d="M130.18,150.74c0-24.71.74-30.72.78-31a4.41,4.41,0,0,1,1.24-2.62,5.25,5.25,0,0,1,3.57-.94c1,0,14.49.7,22.66,1.47a188.92,188.92,0,0,1,18.93,2.48l.7.17c2.24.55,3.26.8,4.17,1.71s2,2.3,2.71,6l0,.18a106.79,106.79,0,0,1,2.15,22.48" transform="translate(77.51 -84.37)" fill="none" stroke="#000" stroke-linecap="round" stroke-linejoin="round" stroke-width="0.28"/><path d="M122.26,101.94s25.77,1.32,39.81,4.4c12.19,2.68,17.62,4.1,24.59,6.17" transform="translate(77.51 -84.37)" fill="none" stroke="#000" stroke-linecap="round" stroke-linejoin="round" stroke-width="0.28"/><path d="M132,103.41s22.59,3.3,38.63,7.73c11.26,3.1,15.55,4.35,18.2,5.12" transform="translate(77.51 -84.37)" fill="none" stroke="#000" stroke-linecap="round" stroke-linejoin="round" stroke-width="0.28"/><path d="M127.19,119.22a19.3,19.3,0,0,1,3.25.24" transform="translate(77.51 -84.37)" fill="none" stroke="#000" stroke-linecap="round" stroke-linejoin="round" stroke-width="0.28"/><path d="M62.72,115.12s20.5,1.74,41.14,2.86c10.46.57,17.54.94,22,1.17" transform="translate(77.51 -84.37)" fill="none" stroke="#000" stroke-linecap="round" stroke-linejoin="round" stroke-width="0.28"/><path d="M7.09,150.74a74.14,74.14,0,0,1,5.6-28.4s4.16-8.64,8-12.21a40.06,40.06,0,0,1,9.41-6.87,23.26,23.26,0,0,1,7.19-2.09h4.87c2.24,0,38.39-.15,66.61,2.24,0,0,7.87.47,15.68,1.8a50.3,50.3,0,0,1,7.88,2s5.19,1.94,5.8,3.51a1.23,1.23,0,0,1,0,.35" transform="translate(77.51 -84.37)" fill="none" stroke="#000" stroke-linecap="round" stroke-linejoin="round" stroke-width="0.57"/><path d="M107.73,103.33a66.43,66.43,0,0,1,5.94,8" transform="translate(77.51 -84.37)" fill="none" stroke="#000" stroke-linecap="round" stroke-linejoin="round" stroke-width="0.57"/><path d="M27.08,92.75A4.94,4.94,0,0,0,28.2,94.1c.78.67,6.3,4.8,8.38,6.46,0,0,.62.49.73.61" transform="translate(77.51 -84.37)" fill="none" stroke="#000" stroke-linecap="round" stroke-linejoin="round" stroke-width="0.57"/><path d="M112.35,92.93s1,.75.27,2.79a53.37,53.37,0,0,1-3.83,7.69" transform="translate(77.51 -84.37)" fill="none" stroke="#000" stroke-linecap="round" stroke-linejoin="round" stroke-width="0.57"/><path d="M96.43,93.74a4.18,4.18,0,0,1,2.45-1.24c1.46-.13,3.63-.19,4.19-.17s1.26.22,1.85,1.47" transform="translate(77.51 -84.37)" fill="none" stroke="#000" stroke-linecap="round" stroke-linejoin="round" stroke-width="0.57"/><path d="M101.53,93.81a6.14,6.14,0,0,1,2.22-1.34" transform="translate(77.51 -84.37)" fill="none" stroke="#000" stroke-linecap="round" stroke-linejoin="round" stroke-width="0.57"/><path d="M114.48,90.63a24.09,24.09,0,0,1-1.62,2.28" transform="translate(77.51 -84.37)" fill="none" stroke="#000" stroke-linecap="round" stroke-linejoin="round" stroke-width="0.28"/><path d="M45,94.77s2.25-5.47,6.51-7.93c5-2.86,8.44-1.62,8.44-1.62a.28.28,0,0,1,.16.15c0,.1.12.08.19.1s.15,0,.28,0,.47.21.22.62S54.65,96,54.25,96.38a2.73,2.73,0,0,1-1.32.77,6.29,6.29,0,0,0-1,.18A9.13,9.13,0,0,1,49,97.8,5.77,5.77,0,0,1,45.89,97,1.89,1.89,0,0,1,45,94.77Z" transform="translate(77.51 -84.37)" fill="none" stroke="#000" stroke-linecap="round" stroke-linejoin="round" stroke-width="0.57"/><line x1="137.41" y1="1.11" x2="131.26" y2="10.53" fill="none" stroke="#000" stroke-linecap="round" stroke-linejoin="round" stroke-width="0.28"/><path d="M60.51,85.48s-5.38,8.14-6.59,9.93" transform="translate(77.51 -84.37)" fill="none" stroke="#000" stroke-linecap="round" stroke-linejoin="round" stroke-width="0.28"/><path d="M47,96a19,19,0,0,0,6-.31" transform="translate(77.51 -84.37)" fill="none" stroke="#000" stroke-linecap="round" stroke-linejoin="round" stroke-width="0.28"/><path d="M45.36,96.48a9,9,0,0,0-.66,1.16c-.18.44-.29.84.17,1a8.92,8.92,0,0,0,3.57.37c1.7-.18,2.69-.55,3.07-1s.55-.72.55-.72" transform="translate(77.51 -84.37)" fill="none" stroke="#000" stroke-linecap="round" stroke-linejoin="round" stroke-width="0.57"/><path d="M-40.5,98.71a2,2,0,0,1,0-.67,4.19,4.19,0,0,1,1.26-1.22,15.47,15.47,0,0,1,2.59-1c.23-.06.88-.27,1.77-.55,2.82-.88,8-2.49,9.65-2.85" transform="translate(77.51 -84.37)" fill="none" stroke="#000" stroke-linecap="round" stroke-linejoin="round" stroke-width="0.28"/><path d="M-35,95.3A15.11,15.11,0,0,1-32.45,94l4.57-1.43" transform="translate(77.51 -84.37)" fill="none" stroke="#000" stroke-linecap="round" stroke-linejoin="round" stroke-width="0.28"/><path d="M-65.86,150.74a61,61,0,0,1,3.51-21.14,10.17,10.17,0,0,1,.41-.94" transform="translate(77.51 -84.37)" fill="none" stroke="#000" stroke-linecap="round" stroke-linejoin="round" stroke-width="0.43"/><path d="M-66.39,150.74a61.2,61.2,0,0,1,3.54-21.32s2-5.49,6-7.3,12.79-5.48,16.33-6.81,15.12-5.18,20.25-6.41S5,103.18,18.06,103.18c0,0,9.23,0,12,.11" transform="translate(77.51 -84.37)" fill="none" stroke="#000" stroke-linecap="round" stroke-linejoin="round" stroke-width="0.28"/><path d="M-55.77,124.58" transform="translate(77.51 -84.37)" fill="none" stroke="#000" stroke-linecap="round" stroke-linejoin="round" stroke-width="0.28"/><path d="M-62.91,150.74a54.73,54.73,0,0,1,4.48-21.91,23.39,23.39,0,0,1,3.19-4.6c1.59-1.59,3.12-2,5.42-2.88s26.9-8.65,42.37-12,21.85-4.51,26.28-4.69,7-.14,9-.13" transform="translate(77.51 -84.37)" fill="none" stroke="#000" stroke-linecap="round" stroke-linejoin="round" stroke-width="0.57"/><path d="M112.68,99.42s6.72,0,13-.44a425.45,425.45,0,0,1,50.11,1.12" transform="translate(77.51 -84.37)" fill="none" stroke="#000" stroke-linecap="round" stroke-linejoin="round" stroke-width="0.28"/><path d="M39.9,101.17c3.91,1,12,3.16,14.39,3.75.92.23,2.38.63,4.08,1.1,4.16,1.15,9.85,2.72,12.71,3.19a145.85,145.85,0,0,0,14.67,1.91c4,.18,13.33.39,17.57.39H104l9.39-.09,10.24-.09c6.89,0,11.08-.12,12.44-.21l1-.05a7.18,7.18,0,0,0,2.44-.32.34.34,0,0,0,0,.1" transform="translate(77.51 -84.37)" fill="none" stroke="#000" stroke-linecap="round" stroke-linejoin="round" stroke-width="0.57"/><path d="M48.08,101.18a22.58,22.58,0,0,1,2.28,2.19,1.19,1.19,0,0,1,.08.56" transform="translate(77.51 -84.37)" fill="none" stroke="#000" stroke-linecap="round" stroke-linejoin="round" stroke-width="0.28"/><path d="M38,101.17l-.63-.31a711.39,711.39,0,0,1,72.1,1.3s11.71,1.16,18.88,2.76c0,0,9.13,1.71,11.81,5.8.44.67-2.17.86-4,1s-8.38.17-12.47.2l-19.64.18c-4,0-14.15-.2-18.31-.38A145.43,145.43,0,0,1,71,109.78c-4.06-.68-13.67-3.51-16.83-4.3s-16.51-4.31-16.51-4.31" transform="translate(77.51 -84.37)" fill="none" stroke="#000" stroke-linecap="round" stroke-linejoin="round" stroke-width="0.28"/><path d="M108.22,103.89a185.88,185.88,0,0,1,20.59,2.76s5.7,1,9.08,4.39" transform="translate(77.51 -84.37)" fill="none" stroke="#000" stroke-linecap="round" stroke-linejoin="round" stroke-width="0.28"/><path d="M135.62,110.43c0-.35-3.21-2.67-8.55-3.66" transform="translate(77.51 -84.37)" fill="none" stroke="#000" stroke-linecap="round" stroke-linejoin="round" stroke-width="0.28"/><path d="M111,104.78c-.22.26,0,.67,0,.67l3.54,5.1s.2.45,1.32.49,17.4-.11,18.2-.17,1.56-.09,1.53-.44" transform="translate(77.51 -84.37)" fill="none" stroke="#000" stroke-linecap="round" stroke-linejoin="round" stroke-width="0.57"/><path d="M127.07,106.77c-6.4-1.21-13.36-2.06-15-2.21-.63,0-.93.06-1,.22" transform="translate(77.51 -84.37)" fill="none" stroke="#000" stroke-linecap="round" stroke-linejoin="round" stroke-width="0.28"/><path d="M138.6,150.76c0-22.89.46-26.6.46-26.6s.14-3.17,3.05-3,16.21,1.15,32.44,3.17c0,0,4.61.35,5.4,4.72a112.93,112.93,0,0,1,2.08,21.7" transform="translate(77.51 -84.37)" fill="none" stroke="#000" stroke-linecap="round" stroke-linejoin="round" stroke-width="0.28"/><path d="M-51.16,117.42l-.76,2a5.81,5.81,0,0,0-.13,1v1.74" transform="translate(77.51 -84.37)" fill="none" stroke="#000" stroke-linecap="round" stroke-linejoin="round" stroke-width="0.28"/><path d="M-74.17,150.74" transform="translate(77.51 -84.37)" fill="none" stroke="#000" stroke-linecap="round" stroke-linejoin="round" stroke-width="0.28"/><path d="M-74,141.86" transform="translate(77.51 -84.37)" fill="none" stroke="#000" stroke-linecap="round" stroke-linejoin="round" stroke-width="0.28"/><path d="M-63.53,150.74c0-16.28,6.7-26.72,7-27.25s0-.66,0-.66-.26-.22-.79.19a16,16,0,0,0-4.6,5.64" transform="translate(77.51 -84.37)" fill="none" stroke="#000" stroke-linecap="round" stroke-linejoin="round" stroke-width="0.43"/><path d="M49.85,102.82s27.63-.6,56.28,1.73a75.82,75.82,0,0,1,5.05,7" transform="translate(77.51 -84.37)" fill="none" stroke="#000" stroke-linecap="round" stroke-linejoin="round" stroke-width="0.28"/><line x1="183.65" y1="20.18" x2="185.04" y2="19.22" fill="none" stroke="#000" stroke-linecap="round" stroke-linejoin="round" stroke-width="0.28"/><path d="M135.47,91.31s.8-1.26,3.78-1.43,12-.33,17.95-.33" transform="translate(77.51 -84.37)" fill="none" stroke="#000" stroke-linecap="round" stroke-linejoin="round" stroke-width="0.57"/><path d="M178.93,91.31s-.79-1.26-3.77-1.43-12-.33-18-.33" transform="translate(77.51 -84.37)" fill="none" stroke="#000" stroke-linecap="round" stroke-linejoin="round" stroke-width="0.57"/><path d="M-58.75,150.68s.59-1.67,2-1.67h1.54s.46.05.46,1.69" transform="translate(77.51 -84.37)" fill="none" stroke="#000" stroke-linecap="round" stroke-linejoin="round" stroke-width="0.43"/><path d="M-30.36,105.12c5.35-5.54,3.59-7.44,3.59-7.44-.53-1.15-2.7-1.24-2.7-1.24s-12.17.4-17.53,3.72c-6.08,3.77-11.51,15-12.35,16.83s-.27,2.47-.27,2.47.53.8,2.39.22c1.45-.44,9.81-4,15.2-6.64" transform="translate(77.51 -84.37)" fill="none" stroke="#000" stroke-linecap="round" stroke-linejoin="round" stroke-width="0.28"/><path d="M-53.58,117.44" transform="translate(77.51 -84.37)" fill="none" stroke="#000" stroke-linecap="round" stroke-linejoin="round" stroke-width="0.28"/><path d="M-27,100.51a4.85,4.85,0,0,0,.2-1.35s0-1.39-2.4-1.68a36,36,0,0,0-7.92.41,18.69,18.69,0,0,0-6.37,2.37c-1.74,1-3.27,2.78-5.68,6.06a50.47,50.47,0,0,0-4.61,8.6s-.72,1.8.23,2.35a2.67,2.67,0,0,0,2,.07" transform="translate(77.51 -84.37)" fill="none" stroke="#000" stroke-linecap="round" stroke-linejoin="round" stroke-width="0.28"/><path d="M-42,113c1.31-.66,2.94-1.49,4.58-2.35a26.43,26.43,0,0,0,7.09-5.57" transform="translate(77.51 -84.37)" fill="none" stroke="#000" stroke-linecap="round" stroke-linejoin="round" stroke-width="0.28"/><path d="M-52.42,116.28s-.63-.32.15-2.17a55.15,55.15,0,0,1,4.92-8.89c1.74-2.29,3.45-4.15,5.31-5.07a16.56,16.56,0,0,1,8-2.23c3.53,0,5.07.08,5.91,1,0,0,.81.81-.73,2.81s-4.72,6-8.92,8.23c-3.23,1.69-6.55,3.38-9,4.51-.75.34-1.41.63-2,.85l-2.44,1A1.58,1.58,0,0,1-52.42,116.28Z" transform="translate(77.51 -84.37)" fill="none" stroke="#000" stroke-linecap="round" stroke-linejoin="round" stroke-width="0.28"/><path d="M-46.71,114.46a74.8,74.8,0,0,1,3.94-8.29c1.8-3,4.9-6.75,8.29-6.72,0,0,3.33-.12,2.81,4.69" transform="translate(77.51 -84.37)" fill="none" stroke="#000" stroke-linecap="round" stroke-linejoin="round" stroke-width="0.28"/><path d="M-41.6,112s.54-1,.75-1.38a3.13,3.13,0,0,1,1.39-1.11c.69-.34,4.69-1.68,7.15-4.49,0,0,2.4-2.75,2.7-3.73s.17-2-1.13-2.24-4.3-.3-6.3,1.11" transform="translate(77.51 -84.37)" fill="none" stroke="#000" stroke-linecap="round" stroke-linejoin="round" stroke-width="0.28"/><path d="M-43.07,112.7s1.1-2.56,1.47-3.14a4.38,4.38,0,0,1,1.91-1.48,14.45,14.45,0,0,1,1.62-.63,3.41,3.41,0,0,1,1.25,0,8.06,8.06,0,0,1,1.18.2" transform="translate(77.51 -84.37)" fill="none" stroke="#000" stroke-linecap="round" stroke-linejoin="round" stroke-width="0.28"/><path d="M-41.15,109.36a5.49,5.49,0,0,1,2.35-.9c1.07,0,1.42,0,1.42,0" transform="translate(77.51 -84.37)" fill="none" stroke="#000" stroke-linecap="round" stroke-linejoin="round" stroke-width="0.28"/><polyline points="42.53 22.88 41.09 22.04 41.09 17.4 42.37 16.41 44.74 15.71" fill="none" stroke="#000" stroke-linecap="round" stroke-linejoin="round" stroke-width="0.28"/><line x1="41.53" y1="21.43" x2="43.7" y2="22.04" fill="none" stroke="#000" stroke-linecap="round" stroke-linejoin="round" stroke-width="0.28"/><line x1="41.64" y1="17.98" x2="45.79" y2="17.6" fill="none" stroke="#000" stroke-linecap="round" stroke-linejoin="round" stroke-width="0.28"/><path d="M-31.73,102.35s-2.55.29-3.17.43-.73.4-.74.88v1s0,.43.74.58,1.88.47,1.88.47" transform="translate(77.51 -84.37)" fill="none" stroke="#000" stroke-linecap="round" stroke-linejoin="round" stroke-width="0.28"/><path d="M-40.15,108.31l4-7.06s.93-1.54,1.65-1.8" transform="translate(77.51 -84.37)" fill="none" stroke="#000" stroke-linecap="round" stroke-linejoin="round" stroke-width="0.28"/><path d="M-45.09,113.69A81.15,81.15,0,0,1-41,105.42" transform="translate(77.51 -84.37)" fill="none" stroke="#000" stroke-linecap="round" stroke-linejoin="round" stroke-width="0.28"/><path d="M-44.06,108.56a8.22,8.22,0,0,1,3.61-3.4c2.29-.93,2.73-1.13,2.73-1.13" transform="translate(77.51 -84.37)" fill="none" stroke="#000" stroke-linecap="round" stroke-linejoin="round" stroke-width="0.28"/><path d="M-35.87,107a3.2,3.2,0,0,1-1-.29.73.73,0,0,1-.42-1.07c.22-.52.77-1.56.77-1.56" transform="translate(77.51 -84.37)" fill="none" stroke="#000" stroke-linecap="round" stroke-linejoin="round" stroke-width="0.28"/><line x1="42.92" y1="20.36" x2="42.92" y2="19.02" fill="none" stroke="#000" stroke-linecap="round" stroke-linejoin="round" stroke-width="0.28"/><line x1="43.28" y1="20.48" x2="43.28" y2="18.9" fill="none" stroke="#000" stroke-linecap="round" stroke-linejoin="round" stroke-width="0.28"/><line x1="43.65" y1="20.61" x2="43.65" y2="18.77" fill="none" stroke="#000" stroke-linecap="round" stroke-linejoin="round" stroke-width="0.28"/><line x1="44.01" y1="20.73" x2="44.01" y2="18.65" fill="none" stroke="#000" stroke-linecap="round" stroke-linejoin="round" stroke-width="0.28"/><line x1="44.38" y1="20.86" x2="44.38" y2="18.52" fill="none" stroke="#000" stroke-linecap="round" stroke-linejoin="round" stroke-width="0.28"/><line x1="44.74" y1="20.98" x2="44.74" y2="18.4" fill="none" stroke="#000" stroke-linecap="round" stroke-linejoin="round" stroke-width="0.28"/><path d="M-44.25,113.29a57.12,57.12,0,0,1,4.1-8.25" transform="translate(77.51 -84.37)" fill="none" stroke="#000" stroke-linecap="round" stroke-linejoin="round" stroke-width="0.28"/><path d="M-43.55,112.89a62.78,62.78,0,0,1,4.29-8.17" transform="translate(77.51 -84.37)" fill="none" stroke="#000" stroke-linecap="round" stroke-linejoin="round" stroke-width="0.28"/><path d="M-40.77,108.56a48.06,48.06,0,0,1,2.38-4.24" transform="translate(77.51 -84.37)" fill="none" stroke="#000" stroke-linecap="round" stroke-linejoin="round" stroke-width="0.28"/><path d="M-52.09,113.69a23,23,0,0,0,3.73-2.2,12.52,12.52,0,0,0,2.48-3.18,29.79,29.79,0,0,1,3.13-4.75c1.59-2,2.13-2.74,3.87-3.65a14.4,14.4,0,0,1,7-2" transform="translate(77.51 -84.37)" fill="none" stroke="#000" stroke-linecap="round" stroke-linejoin="round" stroke-width="0.28"/><path d="M-76.93,150.58" transform="translate(77.51 -84.37)" fill="none" stroke="#000" stroke-linecap="round" stroke-linejoin="round" stroke-width="0.28"/><path d="M-76.93,150.71a144.53,144.53,0,0,1,2-23.11,21.1,21.1,0,0,1,3.06-7.76c1.83-3,7.58-11.07,7.58-11.07s5.74-7.88,6.94-9.29a19.85,19.85,0,0,1,4.13-3.89c1.17-.63,3-1.59,9.07-2.68" transform="translate(77.51 -84.37)" fill="none" stroke="#000" stroke-linecap="round" stroke-linejoin="round" stroke-width="0.57"/><path d="M-47.53,95.26a9.47,9.47,0,0,1,4.47-2.73,56.24,56.24,0,0,1,11.68-1.25.47.47,0,0,1,.51.42c0,.45.07.86.07.86" transform="translate(77.51 -84.37)" fill="none" stroke="#000" stroke-linecap="round" stroke-linejoin="round" stroke-width="0.57"/><path d="M-74.39,150.72c0-.9,0-1,.21-6.4A104.15,104.15,0,0,1-72,130.22a41.52,41.52,0,0,1,3.15-8.15s1.2-2.26,1.62-3.35A91.37,91.37,0,0,1-63,110.39c1.69-2.94,1.94-3.62,3.28-5.64a18.36,18.36,0,0,1,5.88-6.08" transform="translate(77.51 -84.37)" fill="none" stroke="#000" stroke-linecap="round" stroke-linejoin="round" stroke-width="0.57"/><path d="M-58.17,105.17s2.45-5.53,6-7.79a32.21,32.21,0,0,1,6.66-2.68,76.68,76.68,0,0,1,11.77-1.86c3.79-.26,7.28-.42,9.05-.44S7,91.78,8.76,91.81a20.26,20.26,0,0,1,4,.57,55.4,55.4,0,0,0,5.86.25c2.29,0,20,.31,27.15.31" transform="translate(77.51 -84.37)" fill="none" stroke="#000" stroke-linecap="round" stroke-linejoin="round" stroke-width="0.57"/><path d="M-73.8,150.69s.45-12,1.86-17.53,2.59-9.32,4.14-11.77c0,0,1.37-2.45,2.17-4.19a101.66,101.66,0,0,1,5.68-9.53,56.1,56.1,0,0,1,5.9-7.21,22.36,22.36,0,0,1,5.27-3.2A69.37,69.37,0,0,1-30,93.08l.41,0" transform="translate(77.51 -84.37)" fill="none" stroke="#000" stroke-linecap="round" stroke-linejoin="round" stroke-width="0.57"/><path d="M-53,133s21.25-2.65,34.71-4.84a2,2,0,0,0,1.67-1.34c.32-1.18,1-3.76,1.64-7.25a1.56,1.56,0,0,0-.24-1.4,1.84,1.84,0,0,0-1.8-.44c-1.22.27-16.28,3.71-20.76,5" transform="translate(77.51 -84.37)" fill="none" stroke="#000" stroke-linecap="round" stroke-linejoin="round" stroke-width="0.28"/><path d="M-31.14,122.55a19,19,0,0,0-2.63,5.68c-.42,1.4,1.13,1.19,1.13,1.19s7.7-.92,14-2.09c0,0,1.16-.08,1.39-1s.76-2.76,1.48-6.53c.27-1.38-1.39-1.1-1.39-1.1-6.67,1.27-11.17,2.6-11.17,2.6S-30.55,121.84-31.14,122.55Z" transform="translate(77.51 -84.37)" fill="none" stroke="#000" stroke-linecap="round" stroke-linejoin="round" stroke-width="0.43"/><path d="M-31.86,125.05a46.81,46.81,0,0,0,5.31-1.87c1.79-.84,3.46-1.81,4.51-2.38a10.57,10.57,0,0,1,2.87-1.11,15.88,15.88,0,0,1,1.93-.39c.37,0,.79,0,.61.88-.57,2.72-1.09,4.79-1.34,5.65s-.83,1-.83,1-.7.14-1.62.22a6.31,6.31,0,0,1-2.24-.07c-1-.17-2.16-.4-4.35-.79a25.93,25.93,0,0,0-5.4-.12" transform="translate(77.51 -84.37)" fill="none" stroke="#000" stroke-linecap="round" stroke-linejoin="round" stroke-width="0.28"/><path d="M-32.16,125.23A25.48,25.48,0,0,0-27,123.66c2.26-1,3.62-1.73,4.94-2.29a17.85,17.85,0,0,1,3.39-1.13c1-.22,1.15-.27,1.77-.36" transform="translate(77.51 -84.37)" fill="none" stroke="#000" stroke-linecap="round" stroke-linejoin="round" stroke-width="0.28"/><path d="M-52.26,140.93s28-1.51,57.86-1" transform="translate(77.51 -84.37)" fill="none" stroke="#000" stroke-linecap="round" stroke-linejoin="round" stroke-width="0.28"/><path d="M-11.61,105.94h.12c1.11-.14,15.08-2,20.43-2.58" transform="translate(77.51 -84.37)" fill="none" stroke="#000" stroke-linecap="round" stroke-linejoin="round" stroke-width="0.28"/><path d="M-10.2,98a5.4,5.4,0,0,0-2.07,2.54A28,28,0,0,0-13.45,104s-.24,1.15.32,1.59a1.78,1.78,0,0,0,1.41.3" transform="translate(77.51 -84.37)" fill="none" stroke="#000" stroke-linecap="round" stroke-linejoin="round" stroke-width="0.57"/><path d="M6.59,97.19A89.09,89.09,0,0,0-7,96.87a6.68,6.68,0,0,0-3.11,1.07" transform="translate(77.51 -84.37)" fill="none" stroke="#000" stroke-linecap="round" stroke-linejoin="round" stroke-width="0.28"/><path d="M-1.14,97.05a4.23,4.23,0,0,0-2,.83,9.71,9.71,0,0,0-1.72,2.57,18.39,18.39,0,0,0-1.27,3.25,1.07,1.07,0,0,0,.48,1l.4.26" transform="translate(77.51 -84.37)" fill="none" stroke="#000" stroke-linecap="round" stroke-linejoin="round" stroke-width="0.43"/><path d="M-10.2,98s1.25-1,5-1,5.49,0,7,.09a8.53,8.53,0,0,1,3.1.57s.44.08,0,1.3-.62,1.56-1.7,3.85A2.8,2.8,0,0,1,1,104.2c-1.62.23-12.73,1.71-12.73,1.71" transform="translate(77.51 -84.37)" fill="none" stroke="#000" stroke-linecap="round" stroke-linejoin="round" stroke-width="0.57"/><path d="M5,97.7a5,5,0,0,0-2,.39,6.43,6.43,0,0,0-1.66,2.4s-.54,1.25-.84,2.08a2.8,2.8,0,0,0-.11.74c0,.23.85.78.85.78" transform="translate(77.51 -84.37)" fill="none" stroke="#000" stroke-linecap="round" stroke-linejoin="round" stroke-width="0.43"/><path d="M113.19,104.7A32.21,32.21,0,0,1,127,110.89" transform="translate(77.51 -84.37)" fill="none" stroke="#000" stroke-linecap="round" stroke-linejoin="round" stroke-width="0.28"/><path d="M-26.37,92.46s.35-.47,1.91-.52,22.17-.21,22.17-.21a1.49,1.49,0,0,1,.8.24" transform="translate(77.51 -84.37)" fill="none" stroke="#000" stroke-linecap="round" stroke-linejoin="round" stroke-width="0.57"/><path d="M178.31,100.22s5.72,7.7,7.2,10a75.18,75.18,0,0,1,4,6.64,37.65,37.65,0,0,1,2.54,6.78" transform="translate(77.51 -84.37)" fill="none" stroke="#000" stroke-linecap="round" stroke-linejoin="round" stroke-width="0.57"/><path d="M192.32,124.51s1.13,6,1.45,10.06.67,10.91.67,16.13" transform="translate(77.51 -84.37)" fill="none" stroke="#000" stroke-linecap="round" stroke-linejoin="round" stroke-width="0.57"/><path d="M192.43,125.34s-3.2-.42-6.86-1a1.17,1.17,0,0,1-.74-.34c-.24-.29-.8-.83-.8-.83a.56.56,0,0,1-.16-.37.58.58,0,0,1,.28-.44c.17-.13.71-.44.71-.44a2.35,2.35,0,0,1,1.24-.16l5.63.78" transform="translate(77.51 -84.37)" fill="none" stroke="#000" stroke-linecap="round" stroke-linejoin="round" stroke-width="0.28"/><path d="M204.64,125c0-.44-.84-.35-1.25-.34a8.74,8.74,0,0,1-1.5-.12c-1.06-.1-8.84-.82-9.44-.85a1.18,1.18,0,0,1-.8-.27s-5.27-.61-5.85-.64-1.06.17-1.07.38.33.34,1.26.48,6.13.75,6.13.75a3.76,3.76,0,0,1,1.36,0,5.6,5.6,0,0,1,.82.29,1.9,1.9,0,0,0,.87.27l6.63.6,1.08.09c.32,0,.86.12.86.12a.55.55,0,0,0,.63-.25A4.94,4.94,0,0,0,204.64,125Z" transform="translate(77.51 -84.37)" fill="none" stroke="#000" stroke-linecap="round" stroke-linejoin="round" stroke-width="0.43"/><path d="M195,125a2.25,2.25,0,0,0,.32.82,1.13,1.13,0,0,0,.91.43c.51,0,4.16.39,8.91.68,0,0,.47.06.58-.13a1.44,1.44,0,0,0,.06-.84,4.8,4.8,0,0,0-.49-1.62,1.34,1.34,0,0,0-.75-.48c-.44-.06-4.8-.8-9.24-1.18,0,0-.72-.07-.68.45a5.64,5.64,0,0,0,.12.78" transform="translate(77.51 -84.37)" fill="none" stroke="#000" stroke-linecap="round" stroke-linejoin="round" stroke-width="0.28"/><path d="M184.8,123.23a8.88,8.88,0,0,1,1.37.07c.94.09,7.22.81,8.79,1l9.26.9" transform="translate(77.51 -84.37)" fill="none" stroke="#000" stroke-linecap="round" stroke-linejoin="round" stroke-width="0.28"/><path d="M190.7,118.47A6.93,6.93,0,0,0,193,119l15,1.76" transform="translate(77.51 -84.37)" fill="none" stroke="#000" stroke-linecap="round" stroke-linejoin="round" stroke-width="0.28"/><path d="M197.57,102.82s9.28,11.51,11.58,15,3.3,5.89,3.72,8a126.48,126.48,0,0,1,1.18,13.28c.14,4.14.19,9,.19,11.48" transform="translate(77.51 -84.37)" fill="none" stroke="#000" stroke-linecap="round" stroke-linejoin="round" stroke-width="0.57"/><path d="M178.93,100.32s-1.25-.24-2.52-.59c0,0-.28-.11-.28-.32s.27-.3.5-.31,2.9.1,4.38.18,3,.18,5.23.38,6,.47,8.18.89a32.6,32.6,0,0,1,5.51,1.49s.36.12.41.24,0,.32,0,.36a.9.9,0,0,1-.56.12h-1.87a12.52,12.52,0,0,1-2.34-.22c-1.49-.23-4.72-.76-6.61-1s-4.69-.62-6.32-.76-1.21-.06-1.84-.15S178.93,100.32,178.93,100.32Z" transform="translate(77.51 -84.37)" fill="none" stroke="#000" stroke-linecap="round" stroke-linejoin="round" stroke-width="0.43"/><path d="M176.92,99.44c1.07.27,2.07.47,2.08.47s1.2.22,1.82.31a4.91,4.91,0,0,0,.51,0c.18,0,.48,0,1.31.1,1.15.1,2.89.32,4.44.52l1.9.24c1.49.18,3.78.54,5.46.81l1.15.18a12.11,12.11,0,0,0,2.15.21h1.88" transform="translate(77.51 -84.37)" fill="none" stroke="#000" stroke-linecap="round" stroke-linejoin="round" stroke-width="0.28"/><path d="M200.78,102.84a20.19,20.19,0,0,1,3.28,3.57,49.5,49.5,0,0,1,6,12.88" transform="translate(77.51 -84.37)" fill="none" stroke="#000" stroke-linecap="round" stroke-linejoin="round" stroke-width="0.28"/><path d="M181,94.39a18,18,0,0,1,3.17.39A39,39,0,0,1,195,98.65a43,43,0,0,1,4.15,2.81" transform="translate(77.51 -84.37)" fill="none" stroke="#000" stroke-linecap="round" stroke-linejoin="round" stroke-width="0.28"/><path d="M177.41,95.14c-.06-.24,0-.5.51-.56s.9-.11,1.58-.16" transform="translate(77.51 -84.37)" fill="none" stroke="#000" stroke-linecap="round" stroke-linejoin="round" stroke-width="0.28"/><path d="M193.17,124.68c1,4,2.23,9.33,2.23,26" transform="translate(77.51 -84.37)" fill="none" stroke="#000" stroke-linecap="round" stroke-linejoin="round" stroke-width="0.28"/><path d="M191.45,119.05a21.88,21.88,0,0,1,1.37,4.12c0,.08,0,.15.05.23" transform="translate(77.51 -84.37)" fill="none" stroke="#000" stroke-linecap="round" stroke-linejoin="round" stroke-width="0.28"/><path d="M179.36,100.72s5.78,7.65,8.16,11.49c1.32,2.13,2.52,4,3.48,5.9" transform="translate(77.51 -84.37)" fill="none" stroke="#000" stroke-linecap="round" stroke-linejoin="round" stroke-width="0.28"/><path d="M128.46,116l5,.23" transform="translate(77.51 -84.37)" fill="none" stroke="#000" stroke-linecap="round" stroke-linejoin="round" stroke-width="0.28"/><path d="M61.71,111.46a236.56,236.56,0,0,0,29.42,3.06c12.61.49,26.51,1,35.78,1.37" transform="translate(77.51 -84.37)" fill="none" stroke="#000" stroke-linecap="round" stroke-linejoin="round" stroke-width="0.28"/></svg>